# xmcd
#
# Track frame offsets:
#	150
#	17367
#	46602
#	73930
#	95760
#	115652
#	134425
#	162475
#	178032
#	208060
#
# Disc length: 3023 seconds
#
# Revision: 5
# Processed by: cddbd v1.5.2PL0 Copyright (c) Steve Scherf et al.
# Submitted via: EZCDAudioConverter 1.0.7.1
#
DISCID=880bcd0a
DTITLE=Various Artist - A Gospel Family Christmas
DYEAR=1997
DGENRE=Contemporary Christian
TTITLE0=Norman Hutchins - Hark! The Herald Angels Sing
TTITLE1=Richard Smallwood - O Holy Night
TTITLE2=Tramaine Hawkins - O Come All Ye Faithful
TTITLE3=West Angeles Cogic Angelic and Mass Choir - Away In A Manger - Silent Ni
TTITLE3=ght
TTITLE4=Sandra Crouch - Angels We Have Heard On High
TTITLE5=West Angeles Cogic Angelic and Mass Choir - Joy To The World
TTITLE6=The Ricky Grundy Chorale - The First Noel
TTITLE7=Mom And Pop Winans - Go Tell It On The Mountain
TTITLE8=Daryl Coley - O Come, O Come, Emmanuel
TTITLE9=Pastor Donald Alford - Hallelujah Chorus
EXTD=
EXTT0=
EXTT1=
EXTT2=
EXTT3=
EXTT4=
EXTT5=
EXTT6=
EXTT7=
EXTT8=
EXTT9=
PLAYORDER=
